Normalized EMG Linear Envelopes
nRows=259
nColumns=4

endheader
time	 med_gas_r	  soleus_r	 tib_ant_r	
3.22681	  0.010550	  0.012622	  0.008132	
3.26008	  0.010574	  0.012647	  0.008248	
3.29335	  0.010608	  0.012691	  0.008028	
3.32661	  0.010665	  0.012744	  0.007601	
3.35988	  0.010772	  0.012789	  0.007140	
3.39315	  0.010933	  0.012819	  0.006751	
3.42641	  0.011131	  0.012853	  0.006446	
3.45968	  0.011312	  0.012879	  0.006213	
3.49294	  0.011441	  0.012851	  0.006055	
3.52621	  0.011507	  0.012712	  0.005949	
3.55948	  0.011524	  0.012463	  0.005852	
3.59274	  0.011520	  0.012137	  0.005750	
3.62601	  0.011486	  0.011806	  0.005662	
3.65927	  0.011400	  0.011533	  0.005575	
3.69254	  0.011303	  0.011347	  0.005471	
3.72581	  0.011221	  0.011247	  0.005363	
3.75907	  0.011161	  0.011216	  0.005262	
3.79234	  0.011089	  0.011217	  0.005178	
3.8256	  0.010949	  0.011235	  0.005126	
3.85887	  0.010728	  0.011266	  0.005112	
3.89214	  0.010476	  0.011298	  0.005147	
3.9254	  0.010254	  0.011333	  0.005262	
3.95867	  0.010127	  0.011367	  0.005518	
3.99194	  0.010128	  0.011386	  0.005964	
4.0252	  0.010255	  0.011406	  0.006625	
4.05847	  0.010490	  0.011434	  0.007472	
4.09173	  0.010796	  0.011455	  0.008397	
4.125	  0.011111	  0.011441	  0.009217	
4.15827	  0.011302	  0.011391	  0.009687	
4.19153	  0.011246	  0.011335	  0.009662	
4.2248	  0.010928	  0.011292	  0.009240	
4.25806	  0.010447	  0.011278	  0.008572	
4.29133	  0.009952	  0.011313	  0.007800	
4.3246	  0.009560	  0.011390	  0.007039	
4.35786	  0.009321	  0.011503	  0.006364	
4.39113	  0.009239	  0.011636	  0.005816	
4.4244	  0.009279	  0.011772	  0.005428	
4.45766	  0.009409	  0.011895	  0.005221	
4.49093	  0.009616	  0.011964	  0.005209	
4.52419	  0.009867	  0.011965	  0.005405	
4.55746	  0.010096	  0.011957	  0.005818	
4.59073	  0.010260	  0.011984	  0.006429	
4.62399	  0.010380	  0.012023	  0.007184	
4.65726	  0.010485	  0.012052	  0.008014	
4.69052	  0.010557	  0.012098	  0.008821	
4.72379	  0.010538	  0.012179	  0.009453	
4.75706	  0.010391	  0.012301	  0.009836	
4.79032	  0.010201	  0.012470	  0.009995	
4.82359	  0.010081	  0.012661	  0.009860	
4.85685	  0.010107	  0.012822	  0.009316	
4.89012	  0.010291	  0.012924	  0.008454	
4.92339	  0.010580	  0.012960	  0.007505	
4.95665	  0.010888	  0.012942	  0.006660	
4.98992	  0.011147	  0.012890	  0.006009	
5.02319	  0.011372	  0.012828	  0.005580	
5.05645	  0.011583	  0.012759	  0.005371	
5.08972	  0.011770	  0.012696	  0.005358	
5.12298	  0.011896	  0.012679	  0.005534	
5.15625	  0.011986	  0.012726	  0.005898	
5.18952	  0.012064	  0.012807	  0.006428	
5.22278	  0.012125	  0.012904	  0.007070	
5.25605	  0.012165	  0.013012	  0.007741	
5.28931	  0.012187	  0.013110	  0.008365	
5.32258	  0.012181	  0.013179	  0.008846	
5.35585	  0.012112	  0.013184	  0.008992	
5.38911	  0.011965	  0.013085	  0.008588	
5.42238	  0.011751	  0.012860	  0.007590	
5.45565	  0.011464	  0.012525	  0.006138	
5.48891	  0.011058	  0.012122	  0.004414	
5.52218	  0.010569	  0.011726	  0.002721	
5.55544	  0.010070	  0.011388	  0.001544	
5.58871	  0.009598	  0.011142	  0.001505	
5.62198	  0.009199	  0.011006	  0.003379	
5.65524	  0.008931	  0.010971	  0.008161	
5.68851	  0.008840	  0.011008	  0.017027	
5.72177	  0.008972	  0.011146	  0.031122	
5.75504	  0.009406	  0.011454	  0.051373	
5.78831	  0.010261	  0.011984	  0.078039	
5.82157	  0.011649	  0.012810	  0.110421	
5.85484	  0.013680	  0.014021	  0.146793	
5.8881	  0.016415	  0.015713	  0.184414	
5.92137	  0.019930	  0.017961	  0.221434	
5.95464	  0.024211	  0.020773	  0.257382	
5.9879	  0.029108	  0.024144	  0.292513	
6.02117	  0.034435	  0.028086	  0.328262	
6.05444	  0.039988	  0.032551	  0.365189	
6.0877	  0.045451	  0.037310	  0.400450	
6.12097	  0.050516	  0.042103	  0.430524	
6.15423	  0.055020	  0.047034	  0.455061	
6.1875	  0.058855	  0.052364	  0.476179	
6.22077	  0.062184	  0.058485	  0.495996	
6.25403	  0.065340	  0.065629	  0.513841	
6.2873	  0.068643	  0.073663	  0.527609	
6.32056	  0.072487	  0.082380	  0.537663	
6.35383	  0.076789	  0.091320	  0.549191	
6.3871	  0.081061	  0.099503	  0.567067	
6.42036	  0.084976	  0.106274	  0.594274	
6.45363	  0.088230	  0.111382	  0.632820	
6.4869	  0.090882	  0.115230	  0.681595	
6.52016	  0.092517	  0.117708	  0.733567	
6.55343	  0.092460	  0.117798	  0.781624	
6.58669	  0.090884	  0.115424	  0.824365	
6.61996	  0.088788	  0.112169	  0.865206	
6.65323	  0.086984	  0.109420	  0.903933	
6.68649	  0.085717	  0.107492	  0.937592	
6.71976	  0.085129	  0.105949	  0.962032	
6.75302	  0.085274	  0.104428	  0.974656	
6.78629	  0.086372	  0.103249	  0.974208	
6.81956	  0.088370	  0.102518	  0.965760	
6.85282	  0.090840	  0.101792	  0.955694	
6.88609	  0.093346	  0.100909	  0.949010	
6.91935	  0.095589	  0.099805	  0.947108	
6.95262	  0.097559	  0.098822	  0.946521	
6.98589	  0.099402	  0.098423	  0.943225	
7.01915	  0.100727	  0.098255	  0.938720	
7.05242	  0.101293	  0.098188	  0.932714	
7.08569	  0.101684	  0.098801	  0.924387	
7.11895	  0.102626	  0.100423	  0.917363	
7.15222	  0.104072	  0.102524	  0.914122	
7.18548	  0.105980	  0.104713	  0.915649	
7.21875	  0.108448	  0.106719	  0.920781	
7.25202	  0.111149	  0.108412	  0.924552	
7.28528	  0.113247	  0.109747	  0.923894	
7.31855	  0.114078	  0.110317	  0.917963	
7.35181	  0.114112	  0.110552	  0.909143	
7.38508	  0.113724	  0.111130	  0.901494	
7.41835	  0.113156	  0.112366	  0.895852	
7.45161	  0.112559	  0.114330	  0.891525	
7.48488	  0.111595	  0.116635	  0.885311	
7.51815	  0.110153	  0.119209	  0.878721	
7.55141	  0.108427	  0.121898	  0.873502	
7.58468	  0.105912	  0.123850	  0.865061	
7.61794	  0.102404	  0.124054	  0.849329	
7.65121	  0.097969	  0.121626	  0.825137	
7.68448	  0.093521	  0.116808	  0.799797	
7.71774	  0.090296	  0.110603	  0.781669	
7.75101	  0.088855	  0.104412	  0.776685	
7.78427	  0.089260	  0.099546	  0.784845	
7.81754	  0.090703	  0.096161	  0.803052	
7.85081	  0.092539	  0.094172	  0.822325	
7.88407	  0.094614	  0.093634	  0.833268	
7.91734	  0.096861	  0.094522	  0.828873	
7.9506	  0.099239	  0.096844	  0.804649	
7.98387	  0.101437	  0.100323	  0.765807	
8.01714	  0.103647	  0.104846	  0.726689	
8.0504	  0.105591	  0.109685	  0.693958	
8.08367	  0.106853	  0.113846	  0.670708	
8.11694	  0.107681	  0.116845	  0.659304	
8.1502	  0.107937	  0.118532	  0.660488	
8.18347	  0.106983	  0.118507	  0.670723	
8.21673	  0.104437	  0.116541	  0.687182	
8.25	  0.100786	  0.113235	  0.708320	
8.28327	  0.097016	  0.109824	  0.731950	
8.31653	  0.093674	  0.107020	  0.755435	
8.3498	  0.090707	  0.104762	  0.779655	
8.38306	  0.088078	  0.102883	  0.798711	
8.41633	  0.086068	  0.101369	  0.805923	
8.4496	  0.084802	  0.099864	  0.804247	
8.48286	  0.084296	  0.098455	  0.799589	
8.51613	  0.084849	  0.097624	  0.795658	
8.5494	  0.086413	  0.097787	  0.793175	
8.58266	  0.088934	  0.099172	  0.793539	
8.61593	  0.092064	  0.101262	  0.796429	
8.64919	  0.095038	  0.103009	  0.801411	
8.68246	  0.097250	  0.103692	  0.811054	
8.71573	  0.098539	  0.103378	  0.825930	
8.74899	  0.098921	  0.102387	  0.846313	
8.78226	  0.098890	  0.101369	  0.869590	
8.81552	  0.098735	  0.100495	  0.887857	
8.84879	  0.098370	  0.099709	  0.897439	
8.88206	  0.097777	  0.098985	  0.896599	
8.91532	  0.097028	  0.098165	  0.886048	
8.94859	  0.095844	  0.097302	  0.867284	
8.98185	  0.093810	  0.096168	  0.845165	
9.01512	  0.090786	  0.094629	  0.823685	
9.04839	  0.087194	  0.092820	  0.804661	
9.08165	  0.083594	  0.090855	  0.787864	
9.11492	  0.080772	  0.089266	  0.773521	
9.14819	  0.078949	  0.088255	  0.761408	
9.18145	  0.077953	  0.087605	  0.749556	
9.21472	  0.077906	  0.087281	  0.734324	
9.24798	  0.078765	  0.087447	  0.712669	
9.28125	  0.080129	  0.087695	  0.687810	
9.31452	  0.081660	  0.087872	  0.666325	
9.34778	  0.083216	  0.088393	  0.654226	
9.38105	  0.084906	  0.089660	  0.651615	
9.41431	  0.086928	  0.091719	  0.654058	
9.44758	  0.088895	  0.094364	  0.656490	
9.48085	  0.089998	  0.096751	  0.655680	
9.51411	  0.089724	  0.097871	  0.651936	
9.54738	  0.088276	  0.097695	  0.646999	
9.58065	  0.086067	  0.096400	  0.642252	
9.61391	  0.084026	  0.094609	  0.642240	
9.64718	  0.082863	  0.092681	  0.646380	
9.68044	  0.082451	  0.090246	  0.649551	
9.71371	  0.082386	  0.087516	  0.645545	
9.74698	  0.082472	  0.085043	  0.634793	
9.78024	  0.082679	  0.083234	  0.621443	
9.81351	  0.082598	  0.082243	  0.611467	
9.84677	  0.081664	  0.081878	  0.609385	
9.88004	  0.079483	  0.081680	  0.615873	
9.91331	  0.076587	  0.081379	  0.629728	
9.94657	  0.073817	  0.081214	  0.644963	
9.97984	  0.071545	  0.081269	  0.656789	
10.0131	  0.070286	  0.081774	  0.665895	
10.0464	  0.069895	  0.082530	  0.671184	
10.0796	  0.070075	  0.083338	  0.673509	
10.1129	  0.070596	  0.084126	  0.671885	
10.1462	  0.070998	  0.084474	  0.666495	
10.1794	  0.071581	  0.084586	  0.662982	
10.2127	  0.072604	  0.084727	  0.662997	
10.246	  0.073703	  0.084442	  0.664791	
10.2792	  0.074987	  0.083838	  0.670153	
10.3125	  0.076495	  0.083297	  0.681823	
10.3458	  0.078027	  0.082727	  0.697833	
10.379	  0.079187	  0.081792	  0.713736	
10.4123	  0.079720	  0.080372	  0.729948	
10.4456	  0.079752	  0.078751	  0.751409	
10.4788	  0.079306	  0.077086	  0.777779	
10.5121	  0.078282	  0.075354	  0.805646	
10.5454	  0.076964	  0.073711	  0.829677	
10.5786	  0.076095	  0.072514	  0.846029	
10.6119	  0.076006	  0.072237	  0.851749	
10.6452	  0.076511	  0.073101	  0.844254	
10.6784	  0.077243	  0.075154	  0.826721	
10.7117	  0.078211	  0.078309	  0.806865	
10.745	  0.079868	  0.082464	  0.788603	
10.7782	  0.082159	  0.086873	  0.772135	
10.8115	  0.084147	  0.090154	  0.755531	
10.8448	  0.084769	  0.090715	  0.734110	
10.878	  0.083361	  0.088057	  0.708170	
10.9113	  0.080123	  0.083071	  0.681480	
10.9446	  0.076148	  0.077337	  0.657096	
10.9778	  0.072231	  0.072325	  0.639305	
11.0111	  0.068949	  0.068809	  0.631024	
11.0444	  0.066682	  0.066898	  0.629903	
11.0776	  0.065332	  0.066104	  0.631335	
11.1109	  0.064787	  0.066049	  0.631373	
11.1442	  0.064633	  0.066123	  0.623165	
11.1774	  0.064285	  0.065682	  0.608549	
11.2107	  0.063696	  0.064685	  0.593491	
11.244	  0.062880	  0.063265	  0.579327	
11.2772	  0.061663	  0.061379	  0.567106	
11.3105	  0.060051	  0.059037	  0.556214	
11.3437	  0.058045	  0.056321	  0.544878	
11.377	  0.055732	  0.053544	  0.531296	
11.4103	  0.053293	  0.051011	  0.511573	
11.4435	  0.050857	  0.048934	  0.485067	
11.4768	  0.048683	  0.047302	  0.454970	
11.5101	  0.046820	  0.045741	  0.424430	
11.5433	  0.045094	  0.043748	  0.394489	
11.5766	  0.043157	  0.041215	  0.366000	
11.6099	  0.041207	  0.038509	  0.340817	
11.6431	  0.039494	  0.035944	  0.318586	
11.6764	  0.037904	  0.033463	  0.299388	
11.7097	  0.036435	  0.031141	  0.283183	
11.7429	  0.034891	  0.029113	  0.268530	
11.7762	  0.033212	  0.027379	  0.253490	
11.8095	  0.031459	  0.025960	  0.239051	
